
        <svg xmlns="http://www.w3.org/2000/svg" xmlns:xlink="http://www.w3.org/1999/xlink" version="1.1" width="3140.4957249299982" 
        height="3188.90199849203" viewBox="0 0 3140.4957249299982 3188.90199849203">
			
			<g transform="scale(9.445099924601498) translate(10, 10)">
				<defs id="SvgjsDefs1482"></defs><g id="SvgjsG1483" featureKey="rootContainer" transform="matrix(1.679851890870981,0,0,1.679851890870981,0.0005871445827524324,0.0002897674663174521)" fill="#cfae60"><path xmlns="http://www.w3.org/2000/svg" d="M17.914 148.907zM22.657 154.94a90.586 90.586 0 0 0 5.861 6.251c6.914 6.805 15.159 12.525 24.004 16.851 3.259 1.526 6.265 3.107 9.787 4.468.88.338 1.779.7 2.724 1.026.953.302 1.941.604 2.974.903 1.027.321 2.122.549 3.267.786 1.146.23 2.336.493 3.614.624a91.24 91.24 0 0 1-18.434-5.99 93.833 93.833 0 0 1-16.873-9.842c-10.548-7.727-19.57-17.648-26.16-28.989-.272-.339-.685-.985-1.18-1.808l-.796-1.348-.803-1.551c-.534-1.076-1.149-2.168-1.62-3.226a71.281 71.281 0 0 0-1.326-2.748c2.048 5.101 4.412 9.563 7.059 13.806a93.473 93.473 0 0 0 3.869 5.697c-.192-.259-.392-.511-.583-.771a95.012 95.012 0 0 0 4.6 5.841l.016.02zM18.039 149.078l-.125-.17.125.17zM1.335 106.042l-.483-3.875c.256 2.365.553 5.008 1.096 7.654l-.327-1.879a23.961 23.961 0 0 1-.286-1.9zM85.812 185.575c6.652.673 13.628.472 20.461-.609 6.837-1.077 13.524-2.987 19.741-5.449-11.45 4.503-23.602 6.506-35.49 6.171-1.591-.025-3.159 0-4.712-.113z"></path><path xmlns="http://www.w3.org/2000/svg" d="M46.426 171.967l-.259-.165c.087.055.172.111.259.165zM46.167 171.802zM43.653 170.135zM56.077 177.284A83.837 83.837 0 0 0 73.2 183.1c-9.688-2.21-18.805-6.109-26.774-11.133 3.06 1.947 6.277 3.749 9.651 5.317zM177.002 107.094c.098-1.58.296-3.238.346-4.027.594-5.071.77-9.401.745-13.745-.11-.783-.425-2.25-.55-3.918-.153-1.672-.378-3.309-.568-4.924-.289-1.601-.538-3.186-.854-4.74 2.275 11.617 2.237 23.279.144 34.282a94.97 94.97 0 0 1 .737-2.928z"></path><path xmlns="http://www.w3.org/2000/svg" d="M.887 83.482c.848-6.9 2.653-13.626 4.37-18.107l-.695 3.28c.429-.961 1.122-3.194 2.067-5.557l.682-1.802.753-1.747c.5-1.131.92-2.203 1.363-3.025-.303.771-.595 1.602-.947 2.436-.345.837-.732 1.687-1.101 2.542l1.514-3.409A111.863 111.863 0 0 0 4.954 69.8c-1.133 4.352-2.029 8.926-2.511 13.032-.14 1.024-.189 2.024-.28 2.978-.067.954-.183 1.864-.192 2.724-.042 1.719-.1 3.224-.071 4.428.105 2.409.25 3.61.459 2.939.411-1.333.403-8.188 1.837-16.767.767-4.276 1.868-8.966 3.362-13.561 1.483-4.599 3.427-9.058 5.44-12.992l-.592 1.292-.545 1.331-1.116 2.691-1.024 2.78-.521 1.402c-.153.476-.308.954-.461 1.434-1.32 3.807-2.307 7.816-3.167 11.857l-.559 3.052c-.205 1.014-.292 2.046-.444 3.067-.318 2.041-.434 4.097-.611 6.129-.199 4.074-.239 8.098.13 11.946-.015-.914-.03-1.726-.017-2.512l.115-2.355c.048-.809.039-1.667.115-2.65.07-.983.134-2.091.19-3.402.391-6.608 1.572-13.15 3.408-19.481 1.75-6.358 3.814-11.957 6.889-17.03l.801-1.526c.542-1.024.993-2.034 1.566-3.064.653-1.13 1.278-1.976 1.784-2.751.521-.767.963-1.441 1.469-2.095l3.682-5.082c.075-.009-.022.185-.2.473a28.962 28.962 0 0 1 1.959-2.49c.755-.875 1.488-1.803 2.109-2.569.146-.007.288-.011.623-.251 8.65-9.197 19.295-16.692 31.291-21.417l2.667-1.039 2.7-.899 1.343-.448 1.36-.38 2.71-.753c1.55-.373 3.12-.751 4.721-1.091l2.437-.426c.819-.141 1.642-.3 2.484-.378 1.674-.201 3.134-.625 3.921-.729 4.369-.249 8.73-.199 13.849.216.397.007 1.015.043 1.732.082.717.041 1.537.061 2.332.134.932.21 1.927.418 2.971.621 6.369.988 12.527 2.754 18.386 5.103l-.007-.028 2.244.894 2.29 1.058c1.571.684 3.11 1.559 4.7 2.383.798.407 1.554.904 2.338 1.354.77.474 1.576.894 2.32 1.412 1.508 1.002 3.037 1.961 4.446 3.032a99.912 99.912 0 0 1 6.6 5.198c.046.042.094.081.14.122l.042.038 1.457 1.322 1.394 1.391 1.395 1.392c.462.467.89.967 1.337 1.449-.216-.35-.208-.491-.2-.63-.689-.66-1.504-1.441-2.309-2.21 1.343 1.222 2.515 2.327 3.477 3.229.371.474.776.94 1.16 1.449l1.186 1.566 1.261 1.629 1.255 1.752c2.226 2.838 4.191 5.874 6.057 8.97.864 1.588 1.817 3.131 2.586 4.774l1.213 2.436 1.092 2.497c.314.533.192.022.231-.068 1.225 2.962 2.21 6.042 3.102 9.146a88.212 88.212 0 0 1 3.408 17.211c.225 1.378.321 2.772.52 4.153l-.123 2.924c-.001 1.103.057 2.206.01 3.311l-.128 3.326c-.016.75-.124 1.569-.187 2.459-.084.888-.128 1.846-.256 2.856l-.412 3.192c-.132 1.119-.387 2.269-.583 3.471a90.635 90.635 0 0 1-4.312 15.482c-.242.826-.427 1.486-.592 1.855-.627 1.501-1.296 2.954-1.942 4.385-.723 1.394-1.386 2.788-2.127 4.108a86.09 86.09 0 0 1-7.949 12.379c-.336.439-.649.885-.987 1.297l-.998 1.206c-.66.779-1.25 1.558-1.876 2.234-1.251 1.352-2.301 2.606-3.286 3.549-1.128 1.178-1.027 1.233-.246.665a35.07 35.07 0 0 0 1.608-1.262l2.122-1.914c.776-.677 1.519-1.441 2.235-2.161.708-.725 1.416-1.386 1.962-1.984 1.101-1.191 1.824-1.926 1.67-1.599-1.777 3.345-5.013 7.471-9.743 12.035-2.413 2.227-5.128 4.647-8.339 6.98-1.566 1.221-3.307 2.338-5.082 3.558-1.834 1.123-3.708 2.353-5.757 3.445-4.484 2.442 3.365-1.475 3.577-1.512a22.87 22.87 0 0 1-2.377 1.64c-1.478.786-2.943 1.597-4.474 2.273-.895.411-1.774.855-2.679 1.239l-2.729 1.122 1.444-.568c2.952-1.173 5.711-2.555 8.202-3.922-.936.566-1.96 1.221-3.082 1.812-1.203.622-2.448 1.302-3.697 1.909l-3.625 1.686c12.968-4.711 24.885-12.507 34.319-22.67 4.723-5.066 8.935-10.631 12.369-16.651a93.904 93.904 0 0 0 8.288-18.999c-3.154 9.93-8.071 19.052-13.981 26.765 10.744-14.507 17.15-32.293 17.999-50.636-.001 1.011-.101 2.018-.168 3.025-.083 1.007-.123 2.018-.241 3.022-.257 2.005-.441 4.021-.827 6.009-.624 4-1.636 7.931-2.782 11.815 2.262-7.021 3.613-14.424 4.145-21.869.554-7.451.092-14.947-1.057-22.211 1.974 9.622 2.301 20.524.619 31.298 1.182-6.949 1.482-14.112 1.028-21.214-.102-2.713-.422-5.407-.685-7.901-.377-2.476-.662-4.762-1.027-6.611 1.445 6.826 2.015 12.648 2.293 18.136-.267-11.977-2.748-24.112-7.62-35.511 2.659 6.191 4.842 12.851 6.175 19.698 1.34 6.84 1.897 13.838 1.58 20.57-.015-.788.018-1.575-.028-2.366l-.107-2.391c.287 10.85-1.384 21.604-4.696 31.717-1.662 5.056-3.715 9.969-6.2 14.644a95.521 95.521 0 0 1-8.56 13.316c3.673-4.29 7.551-10.354 10.646-17.015 3.081-6.675 5.368-13.894 6.941-20.199-2.314 11.322-6.907 22.494-13.571 32.471-6.646 9.985-15.351 18.764-25.423 25.502-10.06 6.759-21.474 11.437-33.187 13.748a94.608 94.608 0 0 1-17.657 1.809 94.462 94.462 0 0 1-17.361-1.515l3.005.571c1.002.19 2.018.295 3.026.445 2.016.324 4.055.446 6.087.633 4.073.229 8.168.306 12.25-.005 4.089-.217 8.152-.827 12.196-1.572 2.006-.456 4.036-.829 6.017-1.414.994-.278 2-.521 2.987-.83l2.955-.958c-1.492.462-3.062 1.074-4.739 1.523l-2.101.618a91.772 91.772 0 0 0 12.91-4.496 89.46 89.46 0 0 0 5.651-2.705 96.653 96.653 0 0 1-10.714 4.872 98.407 98.407 0 0 1-21.66 5.382c-1.11.176-2.122.231-3.029.326l-2.428.24c-1.429.113-2.484.164-3.222.245-1.477.147-1.687.284-1.099.397.587.113 1.971.203 3.673.251 1.697-.01 3.71-.101 5.541-.268 18.397-1.887 35.288-9.107 48.824-19.916 13.545-10.811 23.919-25.172 29.701-41.467.363-.946.642-1.922.944-2.89.293-.971.617-1.932.882-2.912.491-1.97 1.072-3.917 1.448-5.917l.619-2.985.487-3.012.241-1.507.172-1.517.342-3.034c.698-8.114.422-16.315-.812-24.363-.66-4.554-1.82-9.961-3.315-14.777l-1.15-3.484c-.4-1.107-.825-2.151-1.203-3.133l-.557-1.415-.571-1.271-.981-2.124c-3.134-6.359-7.072-12.424-11.682-18.065-4.605-5.643-9.896-10.868-15.861-15.418l-2.244-1.703-2.327-1.608-1.166-.806-1.203-.756-2.417-1.508c-3.295-1.904-6.67-3.739-10.228-5.261-3.521-1.598-7.206-2.895-10.957-4.055-1.895-.52-3.781-1.1-5.724-1.499-.968-.209-1.928-.463-2.907-.638l-2.944-.521C100.363.01 93.04-.285 85.724.265 78.412.83 71.069 2.218 64.028 4.614l-2.635.913c-.881.297-1.73.682-2.597 1.019-.858.359-1.735.673-2.577 1.069l-2.532 1.173c-.852.376-1.675.808-2.496 1.245l-2.469 1.297-2.402 1.412c-.8.472-1.606.933-2.372 1.458l-2.324 1.528c-.782.497-1.506 1.078-2.261 1.612-.741.554-1.51 1.07-2.226 1.654l-2.157 1.737c-.729.565-1.417 1.178-2.103 1.792l-2.063 1.83-1.971 1.919c-.656.639-1.319 1.271-1.93 1.951-5.031 5.298-9.451 11.078-13.066 17.194A99.518 99.518 0 0 0 5.18 64.379C.805 77.299-.45 90.402.134 102.237c-.126-4.872-.147-11.859.753-18.755zm141.132 90.446a96.807 96.807 0 0 0 8.765-6.389c-2.84 2.339-5.758 4.499-8.765 6.389zm40.217-54.282c-.299.901-.552 1.791-.882 2.641l-.957 2.523-.466 1.248-.513 1.231a108.54 108.54 0 0 0-.997 2.501 97.307 97.307 0 0 1-6.587 13.35c-2.521 4.275-5.443 8.281-8.565 12.04-1.542 1.899-3.222 3.66-4.874 5.421l-2.581 2.523c-.847.848-1.774 1.604-2.652 2.404-.736.64-1.478 1.266-2.225 1.882a90.696 90.696 0 0 0 7.896-7.312 89.808 89.808 0 0 1-11.689 10.188c-1.036.722-2.037 1.496-3.113 2.176l-3.247 2.069-3.43 1.949c-1.167.648-2.399 1.224-3.634 1.855a74.206 74.206 0 0 1 2.685-1.508c1.021-.567 2.092-1.237 3.138-1.85 1.054-.601 2.012-1.261 2.808-1.813.796-.552 1.42-1.01 1.745-1.306-.464.315-.936.617-1.406.924a92.477 92.477 0 0 0 1.507-1.015c-.021.023-.065.059-.101.091 10.932-7.466 20.245-17.277 27.223-28.462 7.009-11.175 11.57-23.781 13.46-36.601-.41 5.142-1.352 9.248-2.543 12.851zm-6.654-65.352zm-8.448-12.698a92.37 92.37 0 0 1 7.773 14.352c.25.549.486 1.106.719 1.664 4.963 12.154 7.221 25.192 6.89 38.036.084-4.25-.198-8.498-.669-12.71-.533-4.854-1.518-9.65-2.824-14.341-2.562-9.407-6.723-18.323-12.005-26.451.485.67.996 1.396 1.525 2.166a32.826 32.826 0 0 1 1.59 2.463l-.638-1.109-.689-1.079-1.378-2.156c-.938-1.424-1.955-2.796-2.934-4.192-1.062-1.334-2.069-2.712-3.174-4.011-.836-.953-1.637-1.938-2.485-2.879 2.992 3.155 5.801 6.54 8.299 10.247zM96.886 1.152c1.467.078 2.937.221 4.407.331 1.204.101 2.402.279 3.588.413.356.015.732.039 1.204.092.471.065 1.034.186 1.769.354 5.469.912 10.459 2.283 14.001 3.699 6.798 2.573 13.123 5.774 18.86 9.471 5.739 3.69 10.889 7.887 15.246 12.471 2.008 2.179 1.422 1.704.315.646l1.662 1.764c-.736-.734-1.459-1.478-2.206-2.196l-2.301-2.09c.56.49 1.918 1.663 2.845 2.522-7.389-7.539-16.026-13.799-25.375-18.404-9.356-4.603-19.431-7.446-29.502-8.581 1.618.18 2.412.22 3.168.24-1.085-.127-2.173-.301-3.274-.401-1.479-.097-2.955-.229-4.423-.301l-4.36-.103c1.444-.001 2.907.039 4.376.073z"></path><path xmlns="http://www.w3.org/2000/svg" d="M115.942 184.69l.426-.125c-.446.12-.885.252-1.334.366.304-.076.609-.15.908-.241zM160.424 146.151c4.235-5.587 7.977-12.263 10.366-18.014l-.029.006c-6.061 14.322-15.892 26.66-28.16 35.744a159.12 159.12 0 0 0 6.418-4.703c2.698-2.82 7.213-7.406 11.405-13.033zM35.35 162.846c7.172 6.412 15.821 11.992 25.448 15.751 3.754 1.413 7.585 2.651 11.503 3.523 1.944.502 3.929.812 5.899 1.181.987.175 1.987.272 2.979.412.994.129 1.986.275 2.987.333-4.519-.501-9.005-1.251-13.372-2.44-4.364-1.185-8.642-2.65-12.769-4.449a97.4 97.4 0 0 1-11.894-6.314c-3.786-2.408-7.376-5.097-10.781-7.997zM123.877 174.277l-2.219.871-2.266.756c-1.5.54-3.047.944-4.59 1.373 1.551-.39 3.111-.754 4.624-1.254l2.283-.698 2.23-.815c-.086-.044-.594.055-.062-.233zM97.683 179.965c-1.16.099-2.326.09-3.494.102-1.168.014-2.338.039-3.509-.038l1.576.148c.482.031.916.068 1.295.113 1.381-.118 2.752-.151 4.132-.325zM51.441 169.209c1.341.787 2.765 1.48 4.178 2.244.354.194.996.415 1.801.709-1.721-.739-3.37-1.655-5.046-2.505-.83-.441-1.629-.935-2.443-1.395-.812-.464-1.621-.927-2.389-1.445l.937.626.977.584 1.985 1.182z"></path></g><g id="SvgjsG1484" featureKey="symbolFeature-0" transform="matrix(18.72392988320601,0,0,18.72392988320601,109.22789721378966,73.5468148580177)" fill="#cfae60"><title xmlns="http://www.w3.org/2000/svg">flowers</title><path xmlns="http://www.w3.org/2000/svg" d="M3.46253,4.17516c-.06822.03712-.12509.06923-.183.09933a.55761.55761,0,0,1-.37314.02824c-.03271-.00608-.06388-.02032-.09656-.02671a.05837.05837,0,0,0-.04242.00988c-.05757.04565-.11459.09216-.16942.141s-.1057.10206-.16025.1512a.3068.3068,0,0,1-.26518.07374c-.071-.01067-.14351-.01123-.21487-.02014A.75021.75021,0,0,1,1.64794,4.499a.52649.52649,0,0,1-.24767-.354A.04273.04273,0,0,0,1.35,4.105c-.05352.0012-.10712.00034-.16066-.001a.33133.33133,0,0,1-.30979-.2209.50731.50731,0,0,1-.03772-.24631.06731.06731,0,0,0-.02312-.04929C.75763,3.53641.69339,3.48914.63148,3.439a.29248.29248,0,0,1-.12007-.21886C.5066,3.11184.50059,3.00335.50267,2.89508c.00064-.03334.0277-.06564.03941-.09955a.06639.06639,0,0,0,.00161-.04811c-.04145-.06971-.0857-.13778-.13-.20576A.32625.32625,0,0,1,.362,2.35053.8017.8017,0,0,1,.5557,1.84106C.56151,1.834.567,1.82376.57457,1.82145c.04866-.01483.054-.05553.05429-.09515A.37647.37647,0,0,1,.73,1.49934a1.25384,1.25384,0,0,1,.28286-.25963.52772.52772,0,0,1,.22518-.12c-.00582-.01547-.00835-.02394-.01209-.03184A.12305.12305,0,0,1,1.238.94967.86173.86173,0,0,1,1.53119.67653,1.08589,1.08589,0,0,1,1.94148.55068a.46206.46206,0,0,1,.14736.02361c.03568.01036.0602.0164.08777-.0181a.47218.47218,0,0,1,.222-.14837A.91764.91764,0,0,1,2.891.35832a.29466.29466,0,0,1,.22259.18639c.01788.04216.03526.05556.08224.04068a.544.544,0,0,1,.3128-.0155.23657.23657,0,0,0,.05492.00369.274.274,0,0,1,.26492.22536c.01337.069.02891.13766.041.2069.008.04548.04418.03847.074.04546a1.06473,1.06473,0,0,1,.14516.03671.412.412,0,0,1,.19491.201,1.01445,1.01445,0,0,1,.09358.24781.344.344,0,0,1-.0427.23547c-.03541.073-.07532.14388-.11048.217a.16333.16333,0,0,0-.015.07057.62545.62545,0,0,1-.22915.48687c-.05467.04931-.11859.08837-.18158.13451.01367.0404.03119.09188.04845.14345a.13075.13075,0,0,1,.0068.02667c.00838.0759.01.0763.0837.04776.09848-.03817.19845-.07261.296-.11294a.66755.66755,0,0,0,.23714-.17848.0987.0987,0,0,0,.02191-.10242.36938.36938,0,0,1-.01772-.10384.42254.42254,0,0,0-.12935-.31875c-.043-.04081-.04745-.07835-.021-.1034a.07616.07616,0,0,1,.11453.02771,3.50479,3.50479,0,0,1,.18623.34205.3228.3228,0,0,1-.09782.31753,2.08583,2.08583,0,0,1-.6144.345.03711.03711,0,0,0-.02065.02862.15.15,0,0,0,.03917.109.08674.08674,0,0,1,.01141.07052,1.33986,1.33986,0,0,1-.04708.1478c-.00964.02735-.02375.05312-.03331.08048a.24938.24938,0,0,0-.00719.04725.11157.11157,0,0,0,.0437.005A2.11945,2.11945,0,0,0,4.12745,3.419a.51451.51451,0,0,0,.13943-.09629.37184.37184,0,0,0,.1357-.34221.83107.83107,0,0,1-.01071-.13734.05661.05661,0,0,1,.02555-.04256c.00974-.005.03162.00493.04352.01414a.207.207,0,0,1,.08519.16106c.00183.05008-.00119.10033.00011.15046a.05263.05263,0,0,0,.0144.03666.07223.07223,0,0,1,.02769.08138,1.08687,1.08687,0,0,1-.24424.46766.18336.18336,0,0,1-.13421.06043.63573.63573,0,0,1-.40357-.11618l-.13351.41955a.32534.32534,0,0,0,.30406-.10987,1.26,1.26,0,0,0,.08842-.11714c.019-.02677.04026-.05234.07483-.03319.03323.01841.02224.05088.00979.07778a.52288.52288,0,0,1-.27891.28023.59024.59024,0,0,1-.21247.01743.06359.06359,0,0,0-.0641.02994.78392.78392,0,0,1-.21719.228.59561.59561,0,0,1-.39434.07421,1.27831,1.27831,0,0,1-.163-.02691A.1795.1795,0,0,1,2.75693,4.47c-.02619-.01772-.04335-.04838-.02273-.07487a.10258.10258,0,0,1,.07159-.0343c.133-.00025.26686.01552.39869.00466A.3893.3893,0,0,0,3.46253,4.17516ZM1.75231,1.59343a.28113.28113,0,0,0-.14033.08246.63685.63685,0,0,0-.26154.47183c-.01211.16-.0059.32146-.00764.48226a.061.061,0,0,0,.00268.01818,1.18709,1.18709,0,0,0,.2155.453.70712.70712,0,0,0,.46485.278c.08911.0093.17888.01222.27048.01817-.012-.08955-.00108-.1223.05145-.12479a.13373.13373,0,0,1,.09947.04064.12036.12036,0,0,0,.1457.045c.08347-.02545.16591-.05431.24856-.08237a.75272.75272,0,0,0,.32323-.20369.37784.37784,0,0,0,.12362-.18332,1.69706,1.69706,0,0,0-.01268-.61625C3.25779,2.1747,3.246,2.07527,3.221,1.97929a.84736.84736,0,0,0-.19452-.35047.467.467,0,0,1-.05576-.07835.36437.36437,0,0,0-.29278-.18154,1.54087,1.54087,0,0,0-.45259.01944.40111.40111,0,0,0-.05847.01836c.01121.03514.03.06368.02607.0887-.006.03835-.04107.0534-.07982.05642-.05808.00452-.11636.0085-.17385.01728a.13979.13979,0,0,0-.0591.03021,1.42965,1.42965,0,0,0-.25645.3498.211.211,0,0,0-.03208.09486,1.43088,1.43088,0,0,0,.0693.61161.7676.7676,0,0,0,.308.40635.31376.31376,0,0,0,.10544.04345.99735.99735,0,0,0,.508-.02867.48266.48266,0,0,0,.34173-.47131,2.28936,2.28936,0,0,1,.00858-.2425.28345.28345,0,0,0-.03847-.21143,3.46587,3.46587,0,0,0-.25754-.34481A.24848.24848,0,0,0,2.36619,1.727a.22089.22089,0,0,1-.09984.0063.34679.34679,0,0,0-.26314.056.38417.38417,0,0,0-.21676.43951c.0104.05525.03916.107.04966.16227a.73994.73994,0,0,0,.1811.36139.198.198,0,0,0,.09571.06559.78829.78829,0,0,0,.36723-.03272.3816.3816,0,0,0,.19949-.18164A.4396.4396,0,0,0,2.77113,2.314a.41829.41829,0,0,0-.11471-.2633.20525.20525,0,0,0-.15019-.06991c-.06416-.00126-.12845.00579-.19272.00858a.31.31,0,0,0-.234.129.21529.21529,0,0,0-.04323.08336.5022.5022,0,0,0-.01058.1324.11751.11751,0,0,0,.03.07032c.037.0383.08157.0691.12033.10584a.19487.19487,0,0,0,.25213.00116.24242.24242,0,0,0,.06245-.21191A.196.196,0,0,0,2.46992,2.242c-.02256.0108-.05224.01628-.06551.034-.01143.01529-.0069.04484-.00453.06758.00361.03476.00176.06784-.03534.08043-.03687.01252-.07663.01793-.10128-.02559a.15722.15722,0,0,1-.0157-.14494.24137.24137,0,0,1,.23876-.15317.11581.11581,0,0,1,.12006.07957.52575.52575,0,0,1,.03062.26656.18319.18319,0,0,1-.11778.16315,1.207,1.207,0,0,1-.22454.05955.29919.29919,0,0,1-.35473-.26995.3468.3468,0,0,0-.0137-.0722.37246.37246,0,0,1,.22007-.44.75392.75392,0,0,1,.40222-.03429.08086.08086,0,0,1,.03455.01182.49152.49152,0,0,1,.2715.4284c.00069.05819.00471.11634.00717.17451a.27328.27328,0,0,1-.08032.235,1.18965,1.18965,0,0,1-.12742.09606c-.06125.04035-.12353.07965-.18812.11429a.48191.48191,0,0,1-.24026.04558.332.332,0,0,1-.17424-.04464.83538.83538,0,0,1-.269-.27153.63714.63714,0,0,1-.113-.326c-.00192-.04548.00346-.0913.006-.13694a.49478.49478,0,0,1,.07073-.27568.889.889,0,0,1,.4901-.322.09106.09106,0,0,1,.03644-.00316.65777.65777,0,0,1,.31438.08834c.03151.02162.06714.03721.09889.05853a.65384.65384,0,0,1,.26579.29612,1.71691,1.71691,0,0,1,.0603.20721.77946.77946,0,0,1,.05447.27316c-.0039.038.00132.07691-.00228.115a.45077.45077,0,0,1-.10237.2935,1.60928,1.60928,0,0,1-.17412.15637.52188.52188,0,0,1-.25222.12675,2.01652,2.01652,0,0,1-.37489.007,1.27343,1.27343,0,0,1-.24489-.07377.46979.46979,0,0,1-.20256-.13857.8761.8761,0,0,1-.20629-.48238,1.99926,1.99926,0,0,1-.0083-.25245,1.49874,1.49874,0,0,1,.092-.43411.12608.12608,0,0,1,.02236-.03994C1.65834,1.71786,1.70446,1.65706,1.75231,1.59343Zm-.20159-.284a.46047.46047,0,0,0-.442.20346.27585.27585,0,0,0-.048.21446A.08517.08517,0,0,1,1.0259,1.793C.9992,1.81216.96985,1.79743.95,1.77153A.16592.16592,0,0,1,.9321,1.73961a.25888.25888,0,0,1,.03337-.25712c.03058-.04959.06517-.09671.10364-.15329A.34687.34687,0,0,0,.872,1.51291a.65935.65935,0,0,0-.10484.40243c.00324.01929-.02474.0503-.04589.06457C.71022,1.98739.68138,1.97267.6629,1.96334.65382,1.95875.65007,1.9436.6438,1.93306l-.01874.01753A.924.924,0,0,0,.487,2.34144.31092.31092,0,0,0,.56791,2.612c.08684.08162.17127.16588.25446.25122a.05351.05351,0,0,1,.00687.05113.0661.0661,0,0,1-.05217.02053.17482.17482,0,0,1-.05743-.0273c-.04783-.02551-.06315-.01734-.06657.036-.00421.0658-.007.13173-.01285.19739a.31616.31616,0,0,0,.06167.22072.32553.32553,0,0,0,.37253.10869A.43836.43836,0,0,0,1.029,3.42051.47073.47073,0,0,1,.84745,3.111a.25741.25741,0,0,1,.11626-.28325.41845.41845,0,0,0,.035-.02633.32916.32916,0,0,0-.03169-.025c-.07243-.043-.14563-.08469-.21769-.12828a.22048.22048,0,0,1-.12682-.23786.5583.5583,0,0,1,.02722-.11614A1.19084,1.19084,0,0,1,.728,2.1391c.049-.083.10188-.1638.15279-.24572a.131.131,0,0,1,.133-.07079.062.062,0,0,0,.07217-.022.85063.85063,0,0,1,.28639-.19545c.04424-.01735.08906-.03336.13247-.05257a.04961.04961,0,0,0,.02766-.0303C1.54036,1.45255,1.54485,1.38242,1.55072,1.30944Zm1.61736.27821a2.29236,2.29236,0,0,1,.24623,1.06521.52835.52835,0,0,0,.257-.22329A.498.498,0,0,0,3.78681,2.193a1.92161,1.92161,0,0,0-.0029-.28925.36158.36158,0,0,0-.17036-.2814c-.02751-.01679-.06852-.01388-.09261-.0333a.15388.15388,0,0,0-.11242-.0266c-.04434.0013-.08872.00384-.13286.00818C3.24264,1.5739,3.21,1.58087,3.16809,1.58765ZM2.59632,3.43071l.02726.01862a.44513.44513,0,0,0,.22413.07184c.09035.01435.18107.0283.27218.03487a.22684.22684,0,0,0,.10506-.02624c.06248-.029.12039-.068.18335-.09567a.20009.20009,0,0,0,.10488-.12057c.01614-.039.04224-.07385.06084-.112a.30417.30417,0,0,0,.03163-.08757A.41729.41729,0,0,0,3.606,2.99461a.50643.50643,0,0,0-.03573-.12051c-.03015-.0708-.10579-.08173-.15668-.11536-.03393.08465-.06894.16705-.1.25092a.4072.4072,0,0,1-.13321.18911,1.17242,1.17242,0,0,1-.4362.19749C2.69858,3.40733,2.65273,3.4176,2.59632,3.43071Zm-.91685.4796c-.03221-.01732-.06367-.032-.09269-.05048-.02658-.01695-.05227-.04122-.03881-.07514a.11045.11045,0,0,1,.05048-.05115c.03288-.01675.05877.001.08478.02581a.38813.38813,0,0,0,.1022.0731,1.00661,1.00661,0,0,0,.35141.05653.29749.29749,0,0,0,.219-.06459c.07383-.05934.14767-.11873.21959-.18033a.6289.6289,0,0,0,.06312-.07344c-.05073-.029-.09452-.05694-.14117-.07881a.06238.06238,0,0,0-.05273.00849.72936.72936,0,0,1-.37235.1432c-.10345.01029-.20614.03021-.30974.03659a.60385.60385,0,0,1-.41691-.12674c-.04729-.03649-.09118-.07737-.13989-.119,0,.06942-.003.13541.00153.20089a.10658.10658,0,0,0,.033.07124q.13891.10447.28457.19987A.15841.15841,0,0,0,1.67947,3.91031Zm-.15438.15909c-.04527.13491.22907.42858.39108.46733.26991.06455.61473-.08056.65267-.25848-.07619.0072-.15587.01746-.23585.02118a.84532.84532,0,0,1-.12752-.01182,1.60629,1.60629,0,0,1-.26273-.03126A.97976.97976,0,0,1,1.52509,4.0694Zm1.286-.17145-.00632-.004a.46987.46987,0,0,1-.21752-.066.05711.05711,0,0,0-.05267.0078.72639.72639,0,0,1-.23624.11959.45765.45765,0,0,1-.14545.05146,2.73564,2.73564,0,0,1-.27774-.01466C1.856,3.991,1.833,3.98489,1.81855,3.993a.43686.43686,0,0,0-.06844.05936c.10043.03562.19781.0724.29669.10459a.54464.54464,0,0,0,.30506.0393.08427.08427,0,0,1,.03654.00039.2699.2699,0,0,0,.27608-.10655C2.71624,4.02894,2.762,3.96269,2.811,3.89794ZM1.43089,1.68023a.22668.22668,0,0,0-.02424.01322,1.83336,1.83336,0,0,0-.37905.359.15711.15711,0,0,0-.04083.07582.67361.67361,0,0,0,.09272.52252A.31545.31545,0,0,0,1.28,2.75359l-.00189-.03382c-.01657-.14442-.03159-.289-.05043-.43316a.67049.67049,0,0,1,.07048-.37866C1.33623,1.8275,1.38768,1.7534,1.43089,1.68023ZM1.36994,2.92755a.87161.87161,0,0,1-.05308.09881.30967.30967,0,0,0,.08636.38963c.078.04511.15615.08989.23518.13309a.565.565,0,0,0,.239.03344.4348.4348,0,0,0,.32384-.10532c-.02966,0-.05564-.00079-.08155.00013a.60817.60817,0,0,1-.39554-.12305,1.1607,1.1607,0,0,1-.27459-.30612C1.42552,3.01125,1.40105,2.97466,1.36994,2.92755ZM3.0799.66488A.99851.99851,0,0,0,2.99845.52925a.17413.17413,0,0,0-.13421-.071c-.06872.00124-.13736.00747-.206.012-.03031.002-.06071.00391-.09079.008a.85253.85253,0,0,0-.29573.14364.68727.68727,0,0,0-.0899.07191A.09443.09443,0,0,0,2.22626.697.40114.40114,0,0,1,2.4886.74532a.21376.21376,0,0,0,.18371.00993c.09229-.02179.18494-.042.27749-.06266C2.98908.68384,3.02852.6758,3.0799.66488Zm.65127.89716a.9455.9455,0,0,1,.02489.99961.13027.13027,0,0,0,.06126-.02653c.07681-.08305.15522-.16521.22458-.25428a.23964.23964,0,0,0,.04077-.12775,1.63312,1.63312,0,0,0-.007-.23655.17785.17785,0,0,0-.0345-.093,1.00914,1.00914,0,0,0-.22273-.22957A.4469.4469,0,0,0,3.73117,1.562Zm.42375.25865a.588.588,0,0,0,.05977-.1051.40066.40066,0,0,0,.00875-.3411A.93785.93785,0,0,0,4.145,1.25583c-.0744-.09436-.12294-.10621-.24369-.06209a.31382.31382,0,0,1,.09021.21588c.00449.04155-.00022.07639-.04266.09643a.11435.11435,0,0,0-.02156.01918A.5655.5655,0,0,1,4.15492,1.82069ZM1.35227,1.08991c.04258-.00379.08241-.00483.12111-.01193a.08521.08521,0,0,0,.04837-.02887A.76478.76478,0,0,1,1.84931.812c.051-.02109.10424-.03721.15339-.06177C2.0212.741,2.031.71429,2.04474.69555,2.027.68656,2.00945.67034,1.99144.6698a.80087.80087,0,0,0-.29.03487,1.09312,1.09312,0,0,0-.26242.15848.16719.16719,0,0,0-.08712.198A.10552.10552,0,0,1,1.35227,1.08991ZM3.5946,2.71121l.01911.0242a.4062.4062,0,0,1,.09726.26183c-.0039.08362-.015.167-.01738.25057a.20443.20443,0,0,1-.07918.15365.48228.48228,0,0,0-.0919.09518.30992.30992,0,0,1-.2288.13678c-.05242.00883-.105.01671-.15314.02432l-.01676.12106c.04882.00311.10156.00741.15439.00965.12211.00516.14468-.00721.183-.12133a.28857.28857,0,0,1,.1495-.17511.2569.2569,0,0,0,.1522-.21984c.00213-.07044.00593-.14083.0082-.21127a.58318.58318,0,0,0-.0856-.35077C3.65052,2.657,3.63737,2.65729,3.5946,2.71121ZM2.61443.90539c.06416.02815.12274.05465.18211.07926a.09353.09353,0,0,0,.04075.00375C2.904.98382,2.971.9805,3.03735.97247a.35766.35766,0,0,1,.2905.08592c.01876.01625.03362.02514.05923.00515a.03915.03915,0,0,0,.01022-.05872A.50784.50784,0,0,0,3.353.92435a.24287.24287,0,0,0-.21383-.1109.4217.4217,0,0,1-.1233-.00681.56369.56369,0,0,0-.34.04973A.24408.24408,0,0,0,2.61443.90539Zm.83757.54874a.35567.35567,0,0,0-.46422-.34151.76159.76159,0,0,0,.06463.09527.34072.34072,0,0,1,.07854.18294.46542.46542,0,0,1,.0083.04983c.00194.03329.01557.04294.05016.03856C3.2753,1.46833,3.36183,1.4624,3.452,1.45413Zm-1.5443-.0589.01344.02291A.62376.62376,0,0,0,2.00923,1.39a2.44591,2.44591,0,0,1,.25429-.12665.98745.98745,0,0,1,.44524-.03971.44159.44159,0,0,1,.16917.07485,1.46348,1.46348,0,0,1,.14831.12081,1.2415,1.2415,0,0,0-.08108-.20939.1024.1024,0,0,0-.11479-.04834c-.05869.02964-.08735.02129-.13053-.02987a.09442.09442,0,0,0-.05823-.03689.79155.79155,0,0,0-.3714.06862c-.10788.057-.20824.12826-.31156.19379C1.9408,1.3685,1.92464,1.38248,1.9077,1.39523ZM3.744,1.07635a.1747.1747,0,0,0,.00878-.0423A.55463.55463,0,0,0,3.66151.75762C3.62553.70452,3.57928.64945,3.4982.67574A.429.429,0,0,1,3.29408.687.52734.52734,0,0,0,3.21125.68629a.24806.24806,0,0,0,.06146.03858A.36005.36005,0,0,1,3.46736.9234c.02351.06358.05175.10925.131.09824a.16063.16063,0,0,1,.06973.02049C3.692,1.05134,3.71494,1.06312,3.744,1.07635Zm.11.3887a.16477.16477,0,0,0-.012-.16619,1.29676,1.29676,0,0,0-.12526-.12327.06053.06053,0,0,0-.038-.0149c-.06267.00056-.12531.00367-.20047.00632a.405.405,0,0,1,.1319.25643c.00113.01094.02371.0267.03755.02807C3.71578,1.45825,3.78427,1.46089,3.85394,1.465ZM2.31383,1.009a.77253.77253,0,0,0-.51322.19711.46508.46508,0,0,0-.16117.32856.367.367,0,0,0,.16362-.09406c.00347-.00661.00383-.01478.00666-.02182a.36966.36966,0,0,1,.03014-.071A.86986.86986,0,0,1,2.31383,1.009ZM1.16328,3.34684a1.51662,1.51662,0,0,1,.00144-.18266c.00987-.07988.02857-.15879.04617-.23752.00722-.03229-.004-.04465-.03373-.04159-.03642.00375-.07269.00966-.10871.01632-.05633.01042-.0742.03778-.077.09547-.00256.053-.01466.10539-.01875.15835a.07067.07067,0,0,0,.01607.05058c.034.033.072.06183.10895.09158C1.11993,3.31523,1.1432,3.33175,1.16328,3.34684Zm2.75591.21875a.431.431,0,0,0,.23317.07622.1705.1705,0,0,0,.16731-.08046A.73238.73238,0,0,0,4.455,3.281,1.07444,1.07444,0,0,1,3.91919,3.56559ZM2.75581,4.138c.0652.04182.11373.07706.18152.0626a.74125.74125,0,0,1,.12718-.0152.57124.57124,0,0,0,.2409-.06753.58491.58491,0,0,0,.063-.04478c-.08581,0-.1583-.00338-.23034.0009a.642.642,0,0,1-.24075-.01778.07131.07131,0,0,0-.05416.0075A.92669.92669,0,0,0,2.75581,4.138ZM.96348,3.64282l-.01585.00965c.03823.08567.075.172.11587.25643a.09677.09677,0,0,0,.04865.03972.77823.77823,0,0,0,.28622.02387,1.8304,1.8304,0,0,1-.16019-.10174c-.06951-.055-.15367-.1002-.16634-.20321-.00082-.00667-.014-.01562-.02241-.01687C1.021,3.64643.99217,3.6452.96348,3.64282ZM1.607,1.18929l.01141.01186a.18309.18309,0,0,1,.0238-.03794A.77627.77627,0,0,1,1.75131,1.065,1.13349,1.13349,0,0,1,2.28409.91115.16267.16267,0,0,0,2.407.85016C2.13125.78091,1.63512.99179,1.607,1.18929ZM.898,2.58768C.8918,2.50052.88078,2.41414.8809,2.32777c.00013-.08723.01131-.17443.01735-.25756a.321.321,0,0,0-.13431.18717A.25474.25474,0,0,0,.898,2.58768ZM2.93413,3.90222l.00026.02127c.03424.00287.06843.00671.10273.00842.09749.00488.195.01131.29256.0123a.24331.24331,0,0,0,.14691-.06583l-.01513-.00183a.70292.70292,0,0,1-.46673.02622A.30875.30875,0,0,0,2.93413,3.90222Zm.76525-.28048-.011-.0149c-.02746.01091-.067.01414-.07984.03435a.75461.75461,0,0,0-.05579.13832L3.567,3.789ZM2.83,3.66711l-.00862.01371a.4137.4137,0,0,0,.11386.05344c.01925.00286.04478-.03642.06746-.05662l-.00678-.01053ZM1.3514,1.19541l0,.01125.11469-.01046-.002-.0164Z"></path></g><g id="SvgjsG1485" featureKey="nameFeature-0" transform="matrix(1.5459533428091856,0,0,1.5459533428091856,54.02118160835432,163.25245633223182)" fill="#cfae60"><path d="M1.28 26 c0 -8.2 6.8 -14.52 15.16 -14.52 c8.44 0 15.2 6.32 15.2 14.52 c0 8.24 -6.76 14.52 -15.2 14.52 c-8.36 0 -15.16 -6.28 -15.16 -14.52 z M7.36 28.2 c2.2 7.28 7.72 11.8 13.04 10.56 c5.4 -1.24 7.96 -7.76 5.8 -15 c-2.16 -7.28 -8.32 -11.6 -13.68 -10.36 s-7.36 7.6 -5.16 14.8 z M32.194 48.6 l0 -1.16 c1.32 -1.4 2.04 -3.24 2.04 -5.2 l0 -15.16 c0 -1.92 -0.72 -3.8 -2.04 -5.24 l0 -1.16 l4.2 0 c1.2 0 2.28 0.92 2.28 2.08 c1.4 -1.4 3.48 -2.04 5.52 -2.04 c5.56 0 10.52 3.48 10.52 9.72 c0 6.64 -4.96 9.72 -10.52 9.72 c-2.04 0 -3.92 -0.6 -5.52 -1.68 l0 3.8 c0 1.92 0.68 3.76 2.04 5.2 l0 1.12 l-8.52 0 z M38.714 31.8 c1.36 4.48 4.72 7.52 8 6.76 c3.28 -0.8 4.8 -5 3.48 -9.44 c-1.36 -4.52 -5.04 -7.36 -8.36 -6.6 s-4.48 4.84 -3.12 9.28 z M55.908 38.36 l0 -2.84 l1.32 0 l1.56 1.68 c1.04 1.12 2.28 1.56 4.04 1.52 c1.6 0 4.04 -0.6 4.04 -2.08 c0 -1.88 -3.64 -4.16 -5.8 -5.44 c-1.88 -1.08 -5.16 -2.96 -5.16 -5.24 c0 -4.36 5.08 -5.44 6.56 -5.44 c1.88 0 3.76 0.44 5.76 1.36 l0 2.76 l-1.44 0 l-1.16 -1.32 c-0.84 -0.96 -2.04 -1.6 -3.36 -1.56 c-1.2 0 -3.44 0.92 -3.44 2.32 c0 1.64 3.88 2.88 7.92 5.64 c2.44 1.64 3.56 3.68 3.56 5.52 c0 2.64 -2.24 4.88 -6.08 4.88 c-5 0 -8.32 -1.76 -8.32 -1.76 z M87.782 33.88 l2.96 0 c-1.4 3.8 -5.08 6.52 -9.52 6.52 c-5.64 0 -10.12 -4.52 -10.12 -9.96 c0 -5.56 4.48 -10.08 10.12 -10.08 c5.56 0 10.08 4.4 10.16 9.88 l-16.24 0 c0.16 0.48 0.24 1 0.4 1.56 c1.28 4.4 4.32 7.56 7.4 7.56 c2.88 0 4.44 -2.72 4.84 -5.48 z M74.942 28.6 l12.28 0 c-1.36 -4.16 -4.56 -6.8 -7.56 -6.8 c-3.04 0 -4.76 2.92 -4.76 5.92 c0 0.28 0 0.6 0.04 0.88 z M93.616 32.8 l0 -10.52 l-2.92 0 l0 -1.6 l2.92 0 l0 -6.72 l4.36 -2.08 l0 8.8 l5.28 0 l0 -6.72 l4.32 -2.08 l0 8.8 l2.92 0 l0 1.6 l-2.92 0 l0 10.36 c0.04 2.04 1.04 4.16 2.92 5.28 l0 2.24 c-3.96 -0.44 -7.24 -2.76 -7.24 -7.36 l0 -10.52 l-5.28 0 l0 10.36 c0.12 1.96 1.04 3.96 2.96 5.28 l0 2.24 c-3.96 -0.48 -7.32 -2.72 -7.32 -7.36 z M127.05 33.88 l2.96 0 c-1.4 3.8 -5.08 6.52 -9.52 6.52 c-5.64 0 -10.12 -4.52 -10.12 -9.96 c0 -5.56 4.48 -10.08 10.12 -10.08 c5.56 0 10.08 4.4 10.16 9.88 l-16.24 0 c0.16 0.48 0.24 1 0.4 1.56 c1.28 4.4 4.32 7.56 7.4 7.56 c2.88 0 4.44 -2.72 4.84 -5.48 z M114.21 28.6 l12.28 0 c-1.36 -4.16 -4.56 -6.8 -7.56 -6.8 c-3.04 0 -4.76 2.92 -4.76 5.92 c0 0.28 0 0.6 0.04 0.88 z"></path></g>
			</g>
		</svg>
	